<svg width="159" height="60" viewBox="0 0 159 60" fill="none" xmlns="http://www.w3.org/2000/svg">
<g clip-path="url(#clip0_102_182)">
<path d="M48.4031 49.6579C47.365 49.0949 43.2967 48.8536 39.7832 48.7731L35.0888 48.7139L35.2485 48.3413C36.8455 44.4805 36.6858 42.7913 34.3701 40.0608C33.2522 38.6934 32.3738 37.1652 32.3738 36.6021C32.3738 33.7869 30.5372 29.3672 28.4653 27.1151C27.1876 25.7477 25.9898 24.6216 25.8301 24.6216C25.7503 24.6216 25.5906 27.5977 25.5107 31.2934C25.4309 35.0739 24.6324 41.0218 23.6741 45.1239C22.1569 51.2327 22.0771 52.8414 22.8756 55.7371C23.8338 59.2762 24.9518 60.0001 29.7387 60.0001C31.4156 60.0001 32.6134 59.5175 33.0925 58.5523C33.6514 57.5066 34.5298 57.1849 36.5261 57.4262C38.3627 57.5871 39.6403 57.2653 40.2792 56.461C41.8762 54.5306 40.7583 52.9219 37.2448 51.9609L34.513 51.2751C35.3872 50.3903 43.4228 49.7892 44.255 50.6274C44.8139 51.1904 44.7341 51.5926 43.9355 51.8339C43.2967 51.9948 42.2587 52.3969 41.6198 52.5578C40.981 52.7991 41.54 53.0404 42.8176 53.0404C44.1751 53.0404 49.9791 51.6053 50.0001 50.9491C50.0211 50.3818 48.4031 49.6622 48.4031 49.6622V49.6579Z" fill="white"/>
<path d="M15.4787 31.2976C15.3988 27.5976 15.2391 24.6257 15.1593 24.6257C14.9996 24.6257 13.8018 25.7518 12.5241 27.1192C10.448 29.3714 8.61559 33.7953 8.61559 36.6063C8.61559 37.1693 7.73722 38.6976 6.61929 40.0649C4.30358 42.7997 4.14388 44.4889 5.74092 48.3455L6.9387 51.1607L3.74461 51.965C0.231124 52.9303 -0.886805 54.539 0.710237 56.4651C1.34905 57.2695 2.62669 57.5912 4.46328 57.4304C6.45959 57.1891 7.33796 57.5108 7.89692 58.5564C8.37603 59.5217 9.57382 60.0043 11.2507 60.0043C16.0418 60.0043 17.1598 59.2804 18.1138 55.7412C18.9123 52.8456 18.8325 51.2411 17.3153 45.1281C16.357 41.0259 15.5585 35.078 15.4787 31.2976Z" fill="white"/>
<path d="M31.8063 21.5226V8.3906C33.3907 4.97848 32.6174 0.571506 31.6297 0.093132C30.722 -0.410643 27.4144 1.20652 25.4769 3.97093L25.1113 2.47654C25.002 2.09553 24.7877 1.99393 24.3926 1.99393C24.3926 1.99393 21.4675 1.39702 20.4925 1.39702C19.5174 1.39702 16.5923 1.99393 16.5923 1.99393C16.1931 1.99393 15.9787 2.09553 15.8737 2.47654L15.508 3.97093C13.5748 1.20652 10.2672 -0.414876 9.35943 0.093132C8.36758 0.571506 7.59428 4.97848 9.18291 8.3906V21.5226C9.18291 22.454 9.9352 23.2117 10.8598 23.2117H30.1252C31.054 23.2117 31.8021 22.454 31.8021 21.5226H31.8063ZM10.8598 5.87173C10.3891 5.95639 9.96042 6.15536 9.65362 6.4517C9.03582 3.89049 9.25016 1.59599 9.87636 1.29118C10.5488 0.910178 12.8561 2.94221 14.3145 5.29598L10.8598 5.86749V5.87173ZM20.4925 20.5701C17.29 20.5701 14.6969 17.9581 14.6969 14.7322C14.6969 11.5064 17.29 8.89437 20.4925 8.89437C23.695 8.89437 26.2881 11.5064 26.2881 14.7322C26.2881 17.9581 23.695 20.5701 20.4925 20.5701ZM31.1086 1.29118C31.7348 1.59176 31.945 3.88626 31.3314 6.4517C31.0246 6.15536 30.5959 5.95639 30.1252 5.87173L26.6747 5.30022C28.1331 2.94644 30.4404 0.914412 31.1086 1.29542V1.29118Z" fill="white"/>
<path d="M20.4925 11.354C18.6391 11.354 17.1387 12.8653 17.1387 14.7323C17.1387 16.5992 18.6391 18.1105 20.4925 18.1105C22.3459 18.1105 23.8462 16.5992 23.8462 14.7323C23.8462 12.8653 22.3459 11.354 20.4925 11.354Z" fill="white"/>
</g>
<path d="M45.1 36.8525C44.34 36.8525 43.8 36.7059 43.48 36.4125C43.1733 36.1059 43.02 35.6592 43.02 35.0725C43.02 34.8992 43.0267 34.6259 43.04 34.2525C43.0667 33.8659 43.1 33.4125 43.14 32.8925C43.18 32.3725 43.22 31.8059 43.26 31.1925C43.3133 30.5792 43.3667 29.9525 43.42 29.3125C43.4867 28.5259 43.54 27.8525 43.58 27.2925C43.6333 26.7192 43.6733 26.2325 43.7 25.8325C43.7267 25.4192 43.7467 25.0792 43.76 24.8125C43.7867 24.5325 43.8 24.2925 43.8 24.0925C43.8133 23.8792 43.82 23.6859 43.82 23.5125C43.8333 23.3392 43.84 23.1525 43.84 22.9525C43.84 22.8459 43.8733 22.7725 43.94 22.7325C44.0067 22.6792 44.0733 22.6525 44.14 22.6525C44.4867 22.6525 44.8667 22.6459 45.28 22.6325C45.6933 22.6059 46.1067 22.5792 46.52 22.5525C46.9333 22.5259 47.3333 22.5059 47.72 22.4925C48.1067 22.4659 48.4467 22.4525 48.74 22.4525C49.5933 22.4525 50.3267 22.5592 50.94 22.7725C51.5533 22.9725 52.0467 23.2725 52.42 23.6725C52.8067 24.0592 53.0867 24.5325 53.26 25.0925C53.4467 25.6525 53.54 26.2925 53.54 27.0125C53.54 27.7992 53.4333 28.5592 53.22 29.2925C53.02 30.0125 52.7 30.6525 52.26 31.2125C51.82 31.7725 51.2533 32.2192 50.56 32.5525C49.8667 32.8859 49.04 33.0525 48.08 33.0525C47.5067 33.0525 47.02 32.9925 46.62 32.8725L46.34 36.5525C46.3267 36.6592 46.3 36.7392 46.26 36.7925C46.22 36.8325 46.14 36.8525 46.02 36.8525H45.1ZM48.34 25.4525C48.1667 25.4525 47.9733 25.4659 47.76 25.4925C47.5467 25.5059 47.32 25.5259 47.08 25.5525C47.0533 26.1125 47.02 26.7925 46.98 27.5925C46.94 28.3925 46.8867 29.2325 46.82 30.1125C47.02 30.1659 47.2133 30.2059 47.4 30.2325C47.6 30.2459 47.78 30.2525 47.94 30.2525C48.4067 30.2525 48.78 30.1459 49.06 29.9325C49.3533 29.7059 49.58 29.4325 49.74 29.1125C49.9 28.7925 50.0067 28.4592 50.06 28.1125C50.1133 27.7659 50.14 27.4659 50.14 27.2125C50.14 26.6392 50.0067 26.2059 49.74 25.9125C49.4867 25.6059 49.02 25.4525 48.34 25.4525ZM66.4578 36.8525C65.7111 36.8525 65.1778 36.7059 64.8578 36.4125C64.5378 36.1192 64.3778 35.6992 64.3778 35.1525C64.3778 34.8592 64.4045 34.3392 64.4578 33.5925C64.5111 32.8459 64.5711 32.0059 64.6378 31.0725H61.0778L60.6778 36.5525C60.6645 36.6592 60.6378 36.7392 60.5978 36.7925C60.5578 36.8325 60.4778 36.8525 60.3578 36.8525H59.2578C58.5111 36.8525 57.9778 36.7059 57.6578 36.4125C57.3378 36.1192 57.1778 35.6992 57.1778 35.1525C57.1778 34.8859 57.1978 34.4325 57.2378 33.7925C57.2778 33.1392 57.3311 32.3992 57.3978 31.5725C57.4645 30.7459 57.5311 29.8725 57.5978 28.9525C57.6645 28.0325 57.7311 27.1659 57.7978 26.3525C57.8645 25.5392 57.9178 24.8259 57.9578 24.2125C57.9978 23.5992 58.0178 23.1792 58.0178 22.9525C58.0178 22.7525 58.1245 22.6525 58.3378 22.6525H59.4378C60.2511 22.6525 60.7978 22.8259 61.0778 23.1725C61.3578 23.5192 61.4978 24.0325 61.4978 24.7125C61.4978 24.8192 61.4778 25.1992 61.4378 25.8525C61.3978 26.4925 61.3445 27.2659 61.2778 28.1725H64.8578C64.8978 27.5859 64.9378 27.0125 64.9778 26.4525C65.0311 25.8925 65.0711 25.3792 65.0978 24.9125C65.1378 24.4459 65.1645 24.0459 65.1778 23.7125C65.2045 23.3659 65.2178 23.1125 65.2178 22.9525C65.2178 22.7525 65.3245 22.6525 65.5378 22.6525H66.6378C67.4511 22.6525 67.9978 22.8259 68.2778 23.1725C68.5578 23.5192 68.6978 24.0325 68.6978 24.7125C68.6978 24.7792 68.6845 24.9925 68.6578 25.3525C68.6445 25.7125 68.6178 26.1659 68.5778 26.7125C68.5378 27.2592 68.4911 27.8725 68.4378 28.5525C68.3978 29.2192 68.3511 29.9059 68.2978 30.6125C68.2578 31.3192 68.2111 32.0125 68.1578 32.6925C68.1178 33.3592 68.0778 33.9659 68.0378 34.5125C67.9978 35.0592 67.9645 35.5192 67.9378 35.8925C67.9111 36.2525 67.8911 36.4725 67.8778 36.5525C67.8645 36.6592 67.8378 36.7392 67.7978 36.7925C67.7578 36.8325 67.6778 36.8525 67.5578 36.8525H66.4578ZM80.1344 22.4325C81.1077 22.4325 81.941 22.5725 82.6344 22.8525C83.3277 23.1192 83.8944 23.5192 84.3344 24.0525C84.7744 24.5725 85.0944 25.2125 85.2944 25.9725C85.4944 26.7192 85.5944 27.5725 85.5944 28.5325C85.5944 29.0659 85.5544 29.6459 85.4744 30.2725C85.4077 30.8992 85.2744 31.5325 85.0744 32.1725C84.8877 32.7992 84.6277 33.4059 84.2944 33.9925C83.961 34.5792 83.5277 35.0992 82.9944 35.5525C82.4744 36.0059 81.8477 36.3725 81.1144 36.6525C80.381 36.9192 79.5144 37.0525 78.5144 37.0525C77.4077 37.0525 76.4877 36.8859 75.7544 36.5525C75.0344 36.2192 74.4544 35.7725 74.0144 35.2125C73.5877 34.6392 73.281 33.9659 73.0944 33.1925C72.921 32.4192 72.8344 31.5925 72.8344 30.7125C72.8344 29.6725 72.9544 28.6592 73.1944 27.6725C73.4344 26.6725 73.8344 25.7859 74.3944 25.0125C74.9677 24.2392 75.721 23.6192 76.6544 23.1525C77.5877 22.6725 78.7477 22.4325 80.1344 22.4325ZM79.7144 25.5325C79.2477 25.5325 78.841 25.6192 78.4944 25.7925C78.161 25.9525 77.8744 26.1725 77.6344 26.4525C77.4077 26.7325 77.221 27.0459 77.0744 27.3925C76.941 27.7392 76.8344 28.0992 76.7544 28.4725C76.6744 28.8325 76.621 29.1859 76.5944 29.5325C76.5677 29.8659 76.5544 30.1659 76.5544 30.4325C76.5544 31.6459 76.7544 32.5325 77.1544 33.0925C77.5677 33.6525 78.1477 33.9325 78.8944 33.9325C79.5077 33.9325 80.0077 33.7392 80.3944 33.3525C80.781 32.9525 81.081 32.4792 81.2944 31.9325C81.521 31.3725 81.6744 30.7992 81.7544 30.2125C81.8344 29.6125 81.8744 29.1059 81.8744 28.6925C81.8744 27.7192 81.7077 26.9525 81.3744 26.3925C81.041 25.8192 80.4877 25.5325 79.7144 25.5325ZM95.9383 25.4525L95.1783 36.5525C95.1649 36.7525 95.0916 36.8525 94.9583 36.8525H93.8583C93.1116 36.8525 92.5783 36.7059 92.2583 36.4125C91.9383 36.1192 91.7783 35.6992 91.7783 35.1525C91.7783 34.9525 91.7849 34.6525 91.7983 34.2525C91.8249 33.8525 91.8583 33.3859 91.8983 32.8525C91.9383 32.3059 91.9783 31.7192 92.0183 31.0925C92.0716 30.4525 92.1249 29.8125 92.1783 29.1725C92.2316 28.5192 92.2783 27.8725 92.3183 27.2325C92.3716 26.5925 92.4183 25.9992 92.4583 25.4525H89.2583C89.1116 25.4525 89.0383 25.3592 89.0383 25.1725L89.0983 24.0525C89.1116 23.8792 89.1383 23.7125 89.1783 23.5525C89.2316 23.3792 89.3116 23.2259 89.4183 23.0925C89.5249 22.9592 89.6583 22.8525 89.8183 22.7725C89.9916 22.6925 90.1983 22.6525 90.4383 22.6525H99.3783C99.4583 22.6525 99.5316 22.6725 99.5983 22.7125C99.6649 22.7525 99.6983 22.8259 99.6983 22.9325L99.6183 24.1125C99.5916 24.5125 99.4783 24.8392 99.2783 25.0925C99.0916 25.3325 98.6983 25.4525 98.0983 25.4525H95.9383ZM109.446 22.4325C110.419 22.4325 111.253 22.5725 111.946 22.8525C112.639 23.1192 113.206 23.5192 113.646 24.0525C114.086 24.5725 114.406 25.2125 114.606 25.9725C114.806 26.7192 114.906 27.5725 114.906 28.5325C114.906 29.0659 114.866 29.6459 114.786 30.2725C114.719 30.8992 114.586 31.5325 114.386 32.1725C114.199 32.7992 113.939 33.4059 113.606 33.9925C113.273 34.5792 112.839 35.0992 112.306 35.5525C111.786 36.0059 111.159 36.3725 110.426 36.6525C109.693 36.9192 108.826 37.0525 107.826 37.0525C106.719 37.0525 105.799 36.8859 105.066 36.5525C104.346 36.2192 103.766 35.7725 103.326 35.2125C102.899 34.6392 102.593 33.9659 102.406 33.1925C102.233 32.4192 102.146 31.5925 102.146 30.7125C102.146 29.6725 102.266 28.6592 102.506 27.6725C102.746 26.6725 103.146 25.7859 103.706 25.0125C104.279 24.2392 105.033 23.6192 105.966 23.1525C106.899 22.6725 108.059 22.4325 109.446 22.4325ZM109.026 25.5325C108.559 25.5325 108.153 25.6192 107.806 25.7925C107.473 25.9525 107.186 26.1725 106.946 26.4525C106.719 26.7325 106.533 27.0459 106.386 27.3925C106.253 27.7392 106.146 28.0992 106.066 28.4725C105.986 28.8325 105.933 29.1859 105.906 29.5325C105.879 29.8659 105.866 30.1659 105.866 30.4325C105.866 31.6459 106.066 32.5325 106.466 33.0925C106.879 33.6525 107.459 33.9325 108.206 33.9325C108.819 33.9325 109.319 33.7392 109.706 33.3525C110.093 32.9525 110.393 32.4792 110.606 31.9325C110.833 31.3725 110.986 30.7992 111.066 30.2125C111.146 29.6125 111.186 29.1059 111.186 28.6925C111.186 27.7192 111.019 26.9525 110.686 26.3925C110.353 25.8192 109.799 25.5325 109.026 25.5325ZM122.765 31.0725L122.385 36.5525C122.372 36.6592 122.358 36.7392 122.345 36.7925C122.345 36.8325 122.285 36.8525 122.165 36.8525H121.065C120.318 36.8525 119.785 36.7059 119.465 36.4125C119.145 36.1192 118.985 35.6992 118.985 35.1525C118.985 34.8859 119.005 34.4325 119.045 33.7925C119.085 33.1392 119.138 32.3992 119.205 31.5725C119.272 30.7459 119.338 29.8725 119.405 28.9525C119.472 28.0325 119.538 27.1659 119.605 26.3525C119.672 25.5392 119.725 24.8259 119.765 24.2125C119.805 23.5992 119.825 23.1792 119.825 22.9525C119.825 22.7525 119.932 22.6525 120.145 22.6525H127.185C127.265 22.6525 127.338 22.6725 127.405 22.7125C127.472 22.7525 127.505 22.8259 127.505 22.9325L127.425 24.1125C127.398 24.5125 127.285 24.8392 127.085 25.0925C126.898 25.3325 126.505 25.4525 125.905 25.4525H123.145L122.945 28.2725H125.785C125.865 28.2725 125.938 28.2925 126.005 28.3325C126.072 28.3725 126.105 28.4459 126.105 28.5525L126.025 29.7325C125.998 30.1325 125.885 30.4592 125.685 30.7125C125.498 30.9525 125.105 31.0725 124.505 31.0725H122.765ZM137.625 22.4325C138.598 22.4325 139.432 22.5725 140.125 22.8525C140.818 23.1192 141.385 23.5192 141.825 24.0525C142.265 24.5725 142.585 25.2125 142.785 25.9725C142.985 26.7192 143.085 27.5725 143.085 28.5325C143.085 29.0659 143.045 29.6459 142.965 30.2725C142.898 30.8992 142.765 31.5325 142.565 32.1725C142.378 32.7992 142.118 33.4059 141.785 33.9925C141.452 34.5792 141.018 35.0992 140.485 35.5525C139.965 36.0059 139.338 36.3725 138.605 36.6525C137.872 36.9192 137.005 37.0525 136.005 37.0525C134.898 37.0525 133.978 36.8859 133.245 36.5525C132.525 36.2192 131.945 35.7725 131.505 35.2125C131.078 34.6392 130.772 33.9659 130.585 33.1925C130.412 32.4192 130.325 31.5925 130.325 30.7125C130.325 29.6725 130.445 28.6592 130.685 27.6725C130.925 26.6725 131.325 25.7859 131.885 25.0125C132.458 24.2392 133.212 23.6192 134.145 23.1525C135.078 22.6725 136.238 22.4325 137.625 22.4325ZM137.205 25.5325C136.738 25.5325 136.332 25.6192 135.985 25.7925C135.652 25.9525 135.365 26.1725 135.125 26.4525C134.898 26.7325 134.712 27.0459 134.565 27.3925C134.432 27.7392 134.325 28.0992 134.245 28.4725C134.165 28.8325 134.112 29.1859 134.085 29.5325C134.058 29.8659 134.045 30.1659 134.045 30.4325C134.045 31.6459 134.245 32.5325 134.645 33.0925C135.058 33.6525 135.638 33.9325 136.385 33.9325C136.998 33.9325 137.498 33.7392 137.885 33.3525C138.272 32.9525 138.572 32.4792 138.785 31.9325C139.012 31.3725 139.165 30.7992 139.245 30.2125C139.325 29.6125 139.365 29.1059 139.365 28.6925C139.365 27.7192 139.198 26.9525 138.865 26.3925C138.532 25.8192 137.978 25.5325 137.205 25.5325ZM157.911 36.4325C157.911 36.6192 157.798 36.7392 157.571 36.7925C157.358 36.8459 157.051 36.8725 156.651 36.8725C156.145 36.8725 155.711 36.8459 155.351 36.7925C154.991 36.7392 154.685 36.6592 154.431 36.5525C154.191 36.4459 153.991 36.3192 153.831 36.1725C153.671 36.0125 153.545 35.8259 153.451 35.6125L151.771 32.1125C151.305 32.8325 150.845 33.5592 150.391 34.2925C149.938 35.0125 149.445 35.7792 148.911 36.5925C148.885 36.6325 148.785 36.7192 148.611 36.8525C148.451 36.9859 148.278 37.0525 148.091 37.0525C147.905 37.0525 147.691 36.9525 147.451 36.7525C147.225 36.5392 147.011 36.2925 146.811 36.0125C146.611 35.7192 146.445 35.4125 146.311 35.0925C146.178 34.7592 146.111 34.4725 146.111 34.2325C146.111 33.9525 146.258 33.6192 146.551 33.2325C146.845 32.8325 147.211 32.4259 147.651 32.0125C148.091 31.5859 148.565 31.1725 149.071 30.7725C149.591 30.3725 150.078 30.0192 150.531 29.7125C149.985 28.7792 149.471 27.9192 148.991 27.1325C148.511 26.3325 148.098 25.6325 147.751 25.0325C147.405 24.4325 147.131 23.9525 146.931 23.5925C146.731 23.2325 146.631 23.0192 146.631 22.9525C146.631 22.8859 146.745 22.8192 146.971 22.7525C147.198 22.6859 147.525 22.6525 147.951 22.6525C148.471 22.6525 148.925 22.6859 149.311 22.7525C149.711 22.8192 150.051 22.9325 150.331 23.0925C150.625 23.2525 150.878 23.4659 151.091 23.7325C151.305 23.9992 151.498 24.3259 151.671 24.7125L152.771 27.2125C153.051 26.8525 153.298 26.5125 153.511 26.1925C153.725 25.8725 153.945 25.5392 154.171 25.1925C154.398 24.8459 154.645 24.4725 154.911 24.0725C155.178 23.6725 155.491 23.2125 155.851 22.6925C155.971 22.5325 156.138 22.4525 156.351 22.4525C156.591 22.4525 156.831 22.5659 157.071 22.7925C157.325 23.0059 157.551 23.2659 157.751 23.5725C157.951 23.8659 158.111 24.1725 158.231 24.4925C158.365 24.7992 158.431 25.0459 158.431 25.2325C158.431 25.4859 158.271 25.8059 157.951 26.1925C157.645 26.5792 157.265 26.9792 156.811 27.3925C156.358 27.8059 155.878 28.2125 155.371 28.6125C154.865 28.9992 154.418 29.3192 154.031 29.5725C154.191 29.8925 154.398 30.2659 154.651 30.6925C154.905 31.1059 155.171 31.5459 155.451 32.0125C155.745 32.4659 156.038 32.9259 156.331 33.3925C156.625 33.8459 156.885 34.2725 157.111 34.6725C157.351 35.0725 157.545 35.4325 157.691 35.7525C157.838 36.0592 157.911 36.2859 157.911 36.4325Z" fill="white"/>
<defs>
<clipPath id="clip0_102_182">
<rect width="50" height="60" fill="white"/>
</clipPath>
</defs>
</svg>
